<svg width="26" height="26" viewBox="0 0 26 26" fill="none" xmlns="http://www.w3.org/2000/svg">
<path d="M2.58333 25.25C2.58333 25.25 0.5 25.25 0.5 23.1667C0.5 21.0833 2.58333 14.8333 13 14.8333C23.4167 14.8333 25.5 21.0833 25.5 23.1667C25.5 25.25 23.4167 25.25 23.4167 25.25H2.58333ZM13 12.75C14.6576 12.75 16.2473 12.0915 17.4194 10.9194C18.5915 9.74731 19.25 8.1576 19.25 6.5C19.25 4.8424 18.5915 3.25269 17.4194 2.08058C16.2473 0.90848 14.6576 0.25 13 0.25C11.3424 0.25 9.75268 0.90848 8.58058 2.08058C7.40848 3.25269 6.75 4.8424 6.75 6.5C6.75 8.1576 7.40848 9.74731 8.58058 10.9194C9.75268 12.0915 11.3424 12.75 13 12.75Z" fill="#A5A5A5"/>
</svg>
