<svg width="28" height="28" viewBox="0 0 28 28" fill="none" xmlns="http://www.w3.org/2000/svg">
<path d="M0.625 1.15C0.625 0.911305 0.719824 0.682387 0.888612 0.513604C1.0574 0.344821 1.28633 0.25 1.52503 0.25H4.22511C4.42587 0.250055 4.62085 0.317231 4.77904 0.440845C4.93724 0.564458 5.04955 0.737411 5.09814 0.9322L5.82716 3.85H26.7258C26.858 3.85012 26.9885 3.87934 27.1081 3.93559C27.2276 3.99184 27.3334 4.07373 27.4177 4.17545C27.5021 4.27716 27.563 4.39621 27.5962 4.52413C27.6294 4.65205 27.634 4.78571 27.6096 4.9156L24.9096 19.3156C24.8709 19.5218 24.7615 19.7081 24.6001 19.8422C24.4387 19.9763 24.2356 20.0498 24.0257 20.05H7.82522C7.61539 20.0498 7.41223 19.9763 7.25084 19.8422C7.08946 19.7081 6.98 19.5218 6.9414 19.3156L4.24311 4.9426L3.52309 2.05H1.52503C1.28633 2.05 1.0574 1.95518 0.888612 1.7864C0.719824 1.61761 0.625 1.38869 0.625 1.15ZM9.62528 20.05C8.67047 20.05 7.75477 20.4293 7.07961 21.1044C6.40446 21.7795 6.02517 22.6952 6.02517 23.65C6.02517 24.6048 6.40446 25.5205 7.07961 26.1956C7.75477 26.8707 8.67047 27.25 9.62528 27.25C10.5801 27.25 11.4958 26.8707 12.1709 26.1956C12.8461 25.5205 13.2254 24.6048 13.2254 23.65C13.2254 22.6952 12.8461 21.7795 12.1709 21.1044C11.4958 20.4293 10.5801 20.05 9.62528 20.05ZM22.2257 20.05C21.2709 20.05 20.3552 20.4293 19.68 21.1044C19.0049 21.7795 18.6256 22.6952 18.6256 23.65C18.6256 24.6048 19.0049 25.5205 19.68 26.1956C20.3552 26.8707 21.2709 27.25 22.2257 27.25C23.1805 27.25 24.0962 26.8707 24.7713 26.1956C25.4465 25.5205 25.8258 24.6048 25.8258 23.65C25.8258 22.6952 25.4465 21.7795 24.7713 21.1044C24.0962 20.4293 23.1805 20.05 22.2257 20.05ZM9.62528 21.85C10.1027 21.85 10.5605 22.0396 10.8981 22.3772C11.2357 22.7148 11.4253 23.1726 11.4253 23.65C11.4253 24.1274 11.2357 24.5852 10.8981 24.9228C10.5605 25.2604 10.1027 25.45 9.62528 25.45C9.14787 25.45 8.69002 25.2604 8.35245 24.9228C8.01487 24.5852 7.82522 24.1274 7.82522 23.65C7.82522 23.1726 8.01487 22.7148 8.35245 22.3772C8.69002 22.0396 9.14787 21.85 9.62528 21.85ZM22.2257 21.85C22.7031 21.85 23.1609 22.0396 23.4985 22.3772C23.8361 22.7148 24.0257 23.1726 24.0257 23.65C24.0257 24.1274 23.8361 24.5852 23.4985 24.9228C23.1609 25.2604 22.7031 25.45 22.2257 25.45C21.7483 25.45 21.2904 25.2604 20.9528 24.9228C20.6153 24.5852 20.4256 24.1274 20.4256 23.65C20.4256 23.1726 20.6153 22.7148 20.9528 22.3772C21.2904 22.0396 21.7483 21.85 22.2257 21.85Z" fill="#A5A5A5"/>
</svg>
